<svg width="31" height="30" viewBox="0 0 31 30" fill="none" xmlns="http://www.w3.org/2000/svg">
<path d="M15.0214 0C14.2257 0 13.4627 0.31607 12.9 0.87868C12.3374 1.44129 12.0214 2.20435 12.0214 3C12.0218 3.52621 12.1606 4.04305 12.4239 4.49865C12.6872 4.95426 13.0657 5.3326 13.5214 5.5957V9H9.02136C5.70786 9 3.02136 11.6865 3.02136 15V21H1.52136C1.3226 20.9972 1.12525 21.0339 0.940799 21.108C0.756347 21.1822 0.588465 21.2922 0.446911 21.4318C0.305356 21.5713 0.192952 21.7376 0.11623 21.921C0.0395087 22.1044 0 22.3012 0 22.5C0 22.6988 0.0395087 22.8956 0.11623 23.079C0.192952 23.2624 0.305356 23.4287 0.446911 23.5682C0.588465 23.7078 0.756347 23.8178 0.940799 23.892C1.12525 23.9661 1.3226 24.0028 1.52136 24H3.02136V27C3.02136 28.6575 4.36386 30 6.02136 30H24.0214C25.6789 30 27.0214 28.6575 27.0214 27V24H28.5214C28.7201 24.0028 28.9175 23.9661 29.1019 23.892C29.2864 23.8178 29.4543 23.7078 29.5958 23.5682C29.7374 23.4287 29.8498 23.2624 29.9265 23.079C30.0032 22.8956 30.0427 22.6988 30.0427 22.5C30.0427 22.3012 30.0032 22.1044 29.9265 21.921C29.8498 21.7376 29.7374 21.5713 29.5958 21.4318C29.4543 21.2922 29.2864 21.1822 29.1019 21.108C28.9175 21.0339 28.7201 20.9972 28.5214 21H27.0214V15C27.0214 11.6865 24.3349 9 21.0214 9H16.5214V5.59277C16.9766 5.32992 17.3549 4.95204 17.6181 4.49699C17.8814 4.04195 18.0204 3.52571 18.0214 3C18.0214 2.20435 17.7053 1.44129 17.1427 0.87868C16.5801 0.31607 15.817 0 15.0214 0ZM9.77136 15C11.0134 15 12.0214 16.008 12.0214 17.25C12.0214 18.492 11.0134 19.5 9.77136 19.5C8.52936 19.5 7.52136 18.492 7.52136 17.25C7.52136 16.008 8.52936 15 9.77136 15ZM20.2714 15C21.5134 15 22.5214 16.008 22.5214 17.25C22.5214 18.492 21.5134 19.5 20.2714 19.5C19.0294 19.5 18.0214 18.492 18.0214 17.25C18.0214 16.008 19.0294 15 20.2714 15ZM12.0214 24H18.0214C18.8494 24 19.5214 24.672 19.5214 25.5C19.5214 26.328 18.8494 27 18.0214 27H12.0214C11.1934 27 10.5214 26.328 10.5214 25.5C10.5214 24.672 11.1934 24 12.0214 24Z" fill="url(#paint0_linear)"/>
<defs>
<linearGradient id="paint0_linear" x1="0" y1="0" x2="0" y2="30" gradientUnits="userSpaceOnUse">
<stop stop-color="#AE99FF"/>
<stop offset="1" stop-color="#7660FF"/>
</linearGradient>
</defs>
</svg>
