<svg width="30" height="30" viewBox="0 0 30 30" fill="none" xmlns="http://www.w3.org/2000/svg">
<path d="M8.99666 23.9911C7.34727 23.9911 6.01277 25.3406 6.01277 26.99C6.01277 28.6394 7.34727 29.9889 8.99666 29.9889C10.646 29.9889 11.9955 28.6394 11.9955 26.99C11.9955 25.3406 10.646 23.9911 8.99666 23.9911ZM0 1.49944C0 2.32414 0.674749 2.99889 1.49944 2.99889H2.99889L8.39688 14.3797L6.37263 18.0383C5.27804 20.0476 6.71751 22.4916 8.99666 22.4916H25.4905C26.3152 22.4916 26.99 21.8169 26.99 20.9922C26.99 20.1675 26.3152 19.4928 25.4905 19.4928H8.99666L10.646 16.4939H21.8169C22.9415 16.4939 23.9311 15.8791 24.4409 14.9494L29.8089 5.21806C30.3637 4.22843 29.644 2.99889 28.5044 2.99889H6.31266L5.30803 0.854682C5.06812 0.329877 4.52832 0 3.95853 0H1.49944C0.674749 0 0 0.674749 0 1.49944ZM23.9911 23.9911C22.3417 23.9911 21.0072 25.3406 21.0072 26.99C21.0072 28.6394 22.3417 29.9889 23.9911 29.9889C25.6405 29.9889 26.99 28.6394 26.99 26.99C26.99 25.3406 25.6405 23.9911 23.9911 23.9911Z" fill="url(#paint0_linear)"/>
<defs>
<linearGradient id="paint0_linear" x1="0" y1="0" x2="0" y2="29.9889" gradientUnits="userSpaceOnUse">
<stop stop-color="#AE99FF"/>
<stop offset="1" stop-color="#7660FF"/>
</linearGradient>
</defs>
</svg>
