<svg width="32" height="28" viewBox="0 0 32 28" fill="none" xmlns="http://www.w3.org/2000/svg">
<path d="M4.33346 4.00002H27.6668C28.5835 4.00002 29.3335 3.25002 29.3335 2.33335C29.3335 1.41669 28.5835 0.666687 27.6668 0.666687H4.33346C3.41679 0.666687 2.66679 1.41669 2.66679 2.33335C2.66679 3.25002 3.41679 4.00002 4.33346 4.00002ZM29.6001 7.00002C29.4501 6.23335 28.7668 5.66669 27.9668 5.66669H4.03346C3.23346 5.66669 2.55012 6.23335 2.40012 7.00002L0.733456 15.3334C0.533456 16.3667 1.31679 17.3334 2.36679 17.3334H2.66679V25.6667C2.66679 26.5834 3.41679 27.3334 4.33346 27.3334H17.6668C18.5835 27.3334 19.3335 26.5834 19.3335 25.6667V17.3334H26.0001V25.6667C26.0001 26.5834 26.7501 27.3334 27.6668 27.3334C28.5835 27.3334 29.3335 26.5834 29.3335 25.6667V17.3334H29.6335C30.6835 17.3334 31.4668 16.3667 31.2668 15.3334L29.6001 7.00002ZM16.0001 24H6.00012V17.3334H16.0001V24Z" fill="url(#paint0_linear)"/>
<defs>
<linearGradient id="paint0_linear" x1="16.0001" y1="0.666687" x2="16.0001" y2="27.3334" gradientUnits="userSpaceOnUse">
<stop stop-color="#AE99FF"/>
<stop offset="1" stop-color="#7660FF"/>
</linearGradient>
</defs>
</svg>
